Clean Scene Releases    http://bitxtre.me/


-------------------------------------------------------------------------------------
                                   nfo




»¿Stone.2010.R5.MIC.5.1.XVID.AC3.HQ.Hive-CM8
 
http://img571.imageshack.us/img571/2592/stoney.jpg

Thx Hive

CM8 Doing It Right The First Time

Sources:
Video: Russian DVD5
Stoun.2010.DVD5
Audio: Stone 2010 R5 MiC Xvid Noir
thx

Encode Video:
added sharpness,bit brightness, denoise,rgb

Encode Audio:
well the mic itself is just a mic, removed noise,hiss,some scratches. added gain,the voices are loud and clear unlike the previous mics eg "you again". 
i added the ac3 effects from the russian ac3 5.1 effects, which makes it more complete and hearable, and since the mic is strong it doesnt get lost within the effects.
watch sample

if a nice line comes up i will do a proper 5.1 audio only

Video: 720x400   @bitrate 1800 2pass
Audio: MIC AC3 5.1 @448
Sample: yes included


[img]http://img513.imageshack.us/img513/6299/sto1.png[/img]
[img]http://img143.imageshack.us/img143/5762/sto2.png[/img]
[img]http://img442.imageshack.us/img442/5006/sto3.png[/img]


General
Complete name                    : Stone.2010.R5.MIC.5.1.XVID.AC3.HQ.Hive-CM8.avi
Format                           : AVI
Format/Info                      : Audio Video Interleave
File size                        : 1.58 GiB
Duration                         : 1h 40mn
Overall bit rate                 : 2 242 Kbps
Writing application              : Nandub v1.0rc2
Writing library                  : Nandub build 1853/release

Video
ID                               : 0
Format                           : MPEG-4 Visual
Format profile                   : Advanced Simple@L5
Format settings, BVOP            : Yes
Format settings, QPel            : Yes
Format settings, GMC             : No warppoints
Format settings, Matrix          : Default (H.263)
Muxing mode                      : Packed bitstream
Codec ID                         : XVID
Codec ID/Hint                    : XviD
Duration                         : 1h 40mn
Bit rate                         : 1 800 Kbps
Width                            : 720 pixels
Height                           : 400 pixels
Display aspect ratio             : 16:9
Frame rate                       : 25.000 fps
Color space                      : YUV
Chroma subsampling               : 4:2:0
Bit depth                        : 8 bits
Scan type                        : Progressive
Bits/(Pixel*Frame)               : 0.250
Stream size                      : 1.27 GiB (80%)
Writing library                  : XviD 1.2.1 (UTC 2008-12-04)

Audio
ID                               : 1
Format                           : AC-3
Format/Info                      : Audio Coding 3
Mode extension                   : CM (complete main)
Codec ID                         : 2000
Duration                         : 1h 37mn
Bit rate mode                    : Constant
Bit rate                         : 448 Kbps
Channel(s)                       : 6 channels
Channel positions                : Front: L C R, Side: L R, LFE
Sampling rate                    : 48.0 KHz
Bit depth                        : 16 bits
Stream size                      : 312 MiB (19%)
Alignment                        : Split accross interleaves
Interleave, duration             : 41 ms (1.04 video frame)
Interleave, preload duration     : 500 ms
